<svg width="40" height="43" viewBox="0 0 40 43" fill="none" xmlns="http://www.w3.org/2000/svg">
<path fill-rule="evenodd" clip-rule="evenodd" d="M22.8175 2.56826C25.4796 2.42754 30.1611 2.31808 32.2097 4.35667C33.1495 5.2929 33.0602 6.54967 33.2097 7.78495C33.4252 9.56749 33.8602 11.3696 34.2369 13.1287C34.6815 15.2005 35.0349 17.286 35.2524 19.3949C35.3029 19.8797 35.4738 20.3273 35.4388 20.8159C35.334 22.2603 34.701 23.7301 34.2077 25.0827C33.8738 25.9954 33.6951 26.961 33.3553 27.8738C32.7534 29.4921 32.1165 31.0968 31.4893 32.7034C31.2971 33.196 31.365 33.5908 31.3048 34.1029C31.1689 35.2698 30.8466 36.55 30.0233 37.4198C27.2621 40.3457 21.8796 41.0982 18.0912 40.6389C16.365 40.4298 14.1281 39.6675 13.2408 38.0452C12.8136 37.2634 12.8718 36.4464 12.5903 35.6353C12.367 34.9942 11.9437 34.3492 11.6077 33.7609C9.96503 30.8662 8.42911 27.7917 7.61163 24.551C6.83299 21.4726 7.14561 16.7583 7.49124 13.5841C7.58056 12.771 7.74949 11.8524 7.74367 11.0432C7.73784 10.0073 7.22911 9.72581 7.80386 8.47295C8.51843 6.91713 10.4291 5.88122 11.9087 5.24404C15.4252 3.72731 18.9709 2.77154 22.8175 2.56826ZM31.1009 8.18367C31.9514 8.10158 32.5204 6.7334 32.1922 5.93595C31.8077 4.99386 30.8155 4.35472 29.9145 3.99899C28.5068 3.43999 26.6446 3.34422 25.1456 3.30513C21.4136 3.2074 17.567 3.84849 14.0951 5.23231C12.8058 5.74831 10.134 6.77249 9.45241 8.04685C8.63105 8.12895 7.82328 9.65545 8.44658 10.3493C8.57668 10.2066 8.70483 10.062 8.83493 9.91931C8.89513 10.191 8.49124 12.3097 8.44464 12.8746C8.25047 15.263 8.21357 17.9271 8.6194 20.294C8.79221 21.3065 8.84076 22.3404 8.98445 23.3568C9.04464 23.7809 9.24464 24.3478 9.02911 24.7465C8.89901 24.5647 8.77085 24.3829 8.64076 24.2012C8.54173 24.5159 8.7728 24.6449 8.87182 24.9204C9.01357 25.3133 8.78833 25.7824 8.97474 26.1772C9.09318 26.4313 9.39415 26.5408 9.48153 26.8398C9.60581 27.2561 9.60386 27.7233 9.73979 28.1533C10.2194 29.6778 11.0738 31.0675 11.7476 32.4826C11.965 31.5757 10.5243 29.6974 10.7767 28.6165C10.9126 29.3338 11.4602 30.0453 11.7786 30.7215C12.3689 31.9705 12.8 33.2918 13.4388 34.5212C13.6641 34.9531 14.4912 36.118 14.5301 36.4992C14.1514 36.5656 13.9417 35.8952 13.5087 36.1923C13.334 37.2614 14.8194 37.883 15.5806 38.1605C18.066 39.0694 21.0369 39.0674 23.5922 38.4537C25.3767 38.0257 28.9476 36.7904 30.0408 35.2248C30.5961 34.4293 30.3689 34.0482 30.5767 33.2859C31.0757 31.4623 31.8408 29.6172 32.4602 27.819C32.9204 26.4782 33.3961 25.1413 33.8272 23.7946C33.9611 23.3764 34.3165 22.8134 34.2524 22.3795C34.7359 21.8674 35.0602 20.9586 34.7378 20.2452C34.6252 19.995 34.4019 19.8679 34.3514 19.5787C34.1456 18.4118 34.1281 17.2234 33.9398 16.0527C33.8039 15.2161 33.5592 14.4109 33.4 13.586C33.299 13.07 33.1398 11.2074 32.8796 10.9122C32.5631 11.6295 32.9844 12.9723 33.1437 13.715C33.3553 14.704 33.767 17.542 33.6893 18.49C32.9126 16.2481 32.367 13.8225 31.6175 11.5318C31.3243 10.6327 30.7903 9.1199 31.1009 8.18367ZM21.9864 3.87195C23.3495 3.83676 24.8893 3.71558 26.1747 4.24722C26.8369 4.52086 27.466 5.01145 27.1709 5.82063C26.8563 6.68063 25.5592 7.14972 24.7883 7.46049C22.3728 8.4319 19.7165 8.80522 17.1204 8.82672C16.1709 8.83454 13.4039 8.7974 13.0718 7.58754C12.8349 6.72558 14.1495 5.95354 14.734 5.61149C16.8 4.40358 19.6194 3.93254 21.9864 3.87195ZM30.5825 7.36081C30.2971 7.27676 29.7709 7.09108 29.6543 7.53281C29.5514 7.92372 30.1301 8.13872 30.2427 8.49836C30.4621 9.20004 30.3204 10.1754 30.3689 10.9122C30.5553 13.715 30.3009 16.7329 29.9592 19.5122C29.8466 20.4328 30.0854 21.6954 29.6116 22.5183C29.2563 21.9222 29.1126 21.1951 28.8835 20.5442C28.1029 18.3317 27.4912 16.0703 26.7204 13.8558C26.4116 12.9684 25.9631 11.0842 26.3437 10.232C26.3437 10.4314 26.3437 10.6308 26.3437 10.8301C27.0543 10.8907 28.831 9.89977 29.5165 9.54404C29.8757 9.35836 30.301 9.12772 30.0679 8.65667C29.9534 8.42799 29.6796 8.12699 29.4136 8.09963C29.3592 8.09376 26.4233 9.36031 26.3145 9.44826C26.1378 9.59095 26.1786 9.85872 26.1165 10.0542C25.9806 9.58899 25.5301 8.63713 24.9844 9.47758C24.8679 9.65545 24.9145 9.87045 24.8213 10.0581C23.7942 10.3278 22.6446 10.5076 21.5864 10.6972C21.0854 10.7871 20.4893 10.7304 20.0971 11.1038C19.9204 10.6835 19.8077 10.4392 19.3204 10.3708C19.132 10.6229 18.9417 10.877 18.7534 11.1292C17.2388 11.1292 15.7223 11.1292 14.2077 11.1292C14.099 10.9103 13.9922 10.6914 13.8835 10.4705C13.5592 10.6542 13.2369 10.836 12.9126 11.0197C11.8776 10.7011 10.8427 10.3845 9.80775 10.0659C9.67182 9.21176 8.82134 9.31731 9.41746 8.16804C9.62522 8.08399 9.83493 7.99995 10.0427 7.9159C9.98445 8.23254 9.71843 8.52963 9.7961 8.87754C10.0175 9.85481 11.6679 10.0151 12.4136 10.2047C12.6291 10.2594 12.8893 10.4588 13.1087 10.4607C14.5495 10.4764 16.0408 10.6679 17.5204 10.5799C18.1534 10.5428 18.8039 10.2203 19.3844 10.2027C21.301 10.1441 23.8427 10.1363 25.3398 8.79154C25.5534 8.80131 25.7689 8.95572 25.9573 8.95181C26.6175 8.93813 28.967 7.56408 29.565 7.12235C29.9844 6.81158 30.5204 6.50081 30.6505 5.94181C30.7864 5.3574 30.2932 5.15413 30.1728 4.72413C30.466 4.77886 30.732 5.03295 30.9437 5.23817C31.767 6.03367 30.7942 6.5829 30.5825 7.36081ZM9.72813 10.2614C9.64852 10.4998 9.45629 10.9689 9.5359 11.2249C9.6893 11.7136 11.8369 12.1338 12.3301 12.2511C12.4602 12.1846 12.5883 12.1201 12.7184 12.0537C12.9534 12.9234 12.4971 14.0825 12.2679 14.9249C11.7087 16.9713 11.1728 19.047 10.567 21.0817C10.431 21.541 10.0641 23.5249 9.80581 23.691C9.04076 20.3644 9.0427 16.8501 9.10095 13.4531C9.10872 12.9391 9.17085 10.3239 9.72813 10.2614ZM25.1456 10.7539C25.6815 13.3359 24.701 18.0346 24.1223 20.681C23.8466 21.9359 23.8272 23.3939 23.398 24.596C23.1573 24.4904 22.4369 21.9867 22.2854 21.5195C21.6524 19.5787 21.1942 17.5831 20.5359 15.6559C20.0932 14.3659 19.5825 12.6283 20.0971 11.2914C20.1534 11.5768 20.2097 11.8641 20.266 12.1514C21.2194 12.3214 24.132 11.7019 25.0155 11.2562C25.0602 11.0881 25.1029 10.92 25.1456 10.7539ZM13.8543 11.5592C13.8543 11.8211 13.8543 12.0849 13.8543 12.3469C14.2058 12.6049 14.8233 12.511 15.2427 12.5189C16.4679 12.5423 17.6582 12.5091 18.8019 12.2726C19.1942 12.7124 18.8116 14.6044 18.6854 15.2142C18.1806 17.6789 17.5747 20.1318 16.9631 22.5769C16.7922 23.2591 16.767 24.6253 16.2136 25.0983C15.6408 24.3614 15.5262 22.9913 15.3068 22.0883C14.7223 19.6959 14.0485 17.2899 13.8039 14.8233C13.7107 13.8577 13.2233 12.3859 13.8543 11.5592ZM31.165 12.1084C31.7476 14.6923 32.8213 17.1609 33.365 19.7448C33.4874 20.3175 33.301 20.81 33.3631 21.3866C33.3961 21.6935 33.6679 21.8929 33.6679 22.1841C33.6718 22.7665 33.2291 23.6265 33.0524 24.1914C32.5068 25.927 31.9417 27.6197 31.2932 29.3143C30.8757 30.401 30.7398 31.6206 30.4194 32.7367C30.3165 33.1002 30.2757 33.7648 29.9359 33.9524C29.7165 33.6964 29.932 32.9614 29.9592 32.6077C30.0524 31.3489 30.0971 30.0922 30.0776 28.8295C30.0641 27.9148 29.9048 26.7206 30.1048 25.8352C30.2524 25.1863 30.8971 25.1433 30.8815 24.2031C30.8738 23.7594 30.4543 23.6109 30.431 23.2259C30.3786 22.3522 30.598 21.4844 30.6563 20.6204C30.7767 18.7773 30.8175 16.9224 30.9786 15.0832C31.0582 14.1861 30.8019 12.9371 31.165 12.1084ZM25.9223 14.2506C26.5573 15.1731 27.0466 17.4169 27.4155 18.5604C27.8582 19.9285 28.8835 22.1939 28.9922 23.5523C29.0175 23.8826 28.7204 24.1523 28.7184 24.5295C28.7184 25.0123 29.1204 25.3661 29.1126 25.7648C29.0835 26.9825 28.5631 28.2627 28.2 29.4042C27.8136 30.6258 27.567 31.9275 27.2175 33.1608C26.9417 34.1342 26.9145 35.3343 26.5048 36.249C26.0388 35.8952 25.9243 34.6111 25.7689 34.0404C25.3534 32.5236 24.9165 31.0186 24.5087 29.4941C24.3456 28.8804 24.3009 27.9793 23.9359 27.4614C24.1223 26.8926 24.5126 26.7186 24.4679 26.0287C24.4408 25.628 23.9922 25.2273 24.0446 24.8853C24.4039 22.5652 25.0019 20.2471 25.4077 17.929C25.6136 16.7485 25.5611 15.3803 25.9223 14.2506ZM13.1068 14.9972C13.4446 17.1355 13.7107 19.2992 14.2194 21.4081C14.5553 22.8056 15.1573 24.1464 15.433 25.5498C15.5165 25.97 14.9806 26.3746 15.0194 26.875C15.066 27.4555 15.6408 27.5728 15.7553 28.0204C15.9553 28.8041 15.7087 30.1664 15.7825 31.044C15.9087 32.5412 16.0291 34.0384 16.1126 35.5395C16.1398 36.0105 16.4291 36.6653 16.3165 37.1031C15.2272 37.3768 14.8291 35.6235 14.4776 34.9101C13.5281 32.9888 12.5301 31.0831 11.6893 29.1129C11.4116 28.464 11.132 27.1682 10.4543 26.875C10.6446 26.3961 10.8815 26.0893 10.7806 25.5244C10.7184 25.1706 10.3961 24.8931 10.4272 24.5315C10.4718 24.0253 10.7223 23.5366 10.833 23.0441C11.2388 21.2654 11.6369 19.4985 12.1806 17.757C12.3301 17.2782 12.7903 15.1204 13.1068 14.9972ZM19.5145 15.1927C19.8408 15.8357 19.8194 16.5628 20.0505 17.241C20.901 19.7331 21.6272 22.2584 22.5048 24.7387C22.8466 25.7062 21.3107 26.1674 22.7767 27.4614C22.7806 28.1924 22.532 29.0211 22.3922 29.7423C22.031 31.603 21.6757 33.4735 21.3786 35.3479C21.3126 35.7643 21.0505 37.6856 20.6155 37.6817C20.2291 37.4706 20.1087 36.7591 19.9592 36.3663C19.5048 35.1779 19.0097 34.0032 18.5844 32.8031C18.2602 31.8845 17.0252 28.7494 16.998 27.9832C16.9844 27.5825 17.4485 27.2679 17.466 26.8105C17.4854 26.2945 17.0194 26.0326 17.031 25.5713C17.0641 24.3224 17.6582 22.9229 17.998 21.7287C18.6077 19.5904 18.9611 17.3524 19.5145 15.1927ZM29.4175 27.8288C29.565 28.5324 29.3806 29.2908 29.3631 30.0023C29.334 31.2512 29.5786 33.4071 29.1631 34.5368C29.0291 34.9043 27.7922 35.7506 27.4116 35.7252C28.0796 33.0944 28.7495 30.4616 29.4175 27.8288ZM23.398 28.6145C24.1476 31.2278 24.8971 33.839 25.6466 36.4523C25.2039 37.0855 22.6194 37.3123 21.8446 37.4139C22.3631 34.4801 22.8796 31.5464 23.398 28.6145ZM16.7961 29.8537C17.6641 32.5217 18.5806 35.0821 19.7417 37.625C18.8505 37.5605 17.9592 37.494 17.066 37.4295C16.7806 35.645 16.732 33.6377 16.7165 31.8259C16.7107 31.259 16.5126 30.3502 16.7961 29.8537Z" fill="#F18539" stroke="#F18539" stroke-width="0.25" stroke-linejoin="round"/>
</svg>
