<svg width="40" height="85" viewBox="0 0 40 85" fill="none" xmlns="http://www.w3.org/2000/svg">
<path d="M21.3341 21.42C21.2746 21.49 21.2389 21.58 21.2389 21.68V28.44C18.3562 30.87 17.1412 33.81 17.1412 33.81C17.1412 33.81 18.8684 34.07 21.2389 33.94V37.11H22.43V33.85C24.2168 33.66 26.2299 33.22 28.1001 32.31C33.0435 29.89 35.0447 25.04 35.0447 25.04C35.0447 25.04 29.0411 24.13 24.0977 26.55C23.5021 26.84 22.9422 27.17 22.43 27.52V22.69C24.0024 21.94 27.7666 19.86 29.601 16.45C31.9476 12.07 30.2323 7.14001 30.2323 7.14001C30.2323 7.14001 24.7052 9.33001 22.3467 13.71C20.8219 16.55 21.0125 19.61 21.3341 21.42Z" fill="#F18539"/>
<path d="M13.6629 37.11V26.7C13.6629 26.57 13.6033 26.46 13.52 26.37C13.3889 25.09 12.9482 23.24 11.6141 21.67C9.30316 18.96 5.20548 18.11 5.20548 18.11C5.20548 18.11 4.83622 21.65 7.1352 24.36C8.69566 26.2 11.1018 27.18 12.4717 27.62V37.11H13.6629Z" fill="#F18539"/>
<path d="M9.11256 15.61C11.5783 17.14 14.6635 17.31 15.9261 17.32V37.11H17.1173V17.31C17.1173 17.17 17.0459 17.04 16.9386 16.95C18.0584 15.94 21.0721 12.88 21.5604 9C22.168 4.23 18.7016 0 18.7016 0C18.7016 0 14.2585 3.52 13.6629 8.3C13.4127 10.28 13.8535 12.16 14.4729 13.69C13.913 13.05 13.2221 12.42 12.3645 11.89C9.17212 9.92 4.95532 10.19 4.95532 10.19C4.95532 10.19 5.92018 13.65 9.11256 15.61Z" fill="#F18539"/>
<path d="M30.9708 50H9.02917V68.79H30.9708V50ZM29.7796 67.79H10.2204V51H29.7796V67.79Z" fill="#F18539"/>
<path d="M5.20547 76.43V46.18C5.00297 46.22 4.78855 46.24 4.55031 46.24C4.35972 46.24 4.18105 46.23 4.01428 46.2V76.41C4.18105 76.38 4.35972 76.37 4.55031 76.37C4.78855 76.37 5.00297 76.39 5.20547 76.43Z" fill="#F18539"/>
<path d="M35.9857 76.41V46.2C35.819 46.23 35.6403 46.24 35.4497 46.24C35.2115 46.24 34.9971 46.22 34.7946 46.18V76.43C34.9971 76.39 35.2115 76.37 35.4497 76.37C35.6403 76.37 35.819 76.38 35.9857 76.41Z" fill="#F18539"/>
<path d="M0 38.11V42.27C1.2031 42.47 1.85825 43.24 2.45384 43.94C3.00179 44.58 3.40679 45.02 4.0143 45.17C4.18106 45.22 4.34783 45.24 4.55033 45.24C4.80048 45.24 5.01489 45.21 5.20548 45.14C5.74152 44.96 6.12269 44.53 6.6349 43.94C7.32579 43.14 8.10006 42.22 9.69625 42.22C11.2924 42.22 12.0667 43.14 12.7576 43.94C13.4366 44.75 13.913 45.24 14.8422 45.24C15.7713 45.24 16.2478 44.75 16.9267 43.94C17.6176 43.14 18.3919 42.22 19.9881 42.22C21.5843 42.22 22.3585 43.14 23.0494 43.94C23.7403 44.75 24.2049 45.24 25.134 45.24C26.075 45.24 26.5396 44.75 27.2305 43.94C27.9214 43.14 28.6956 42.22 30.2918 42.22C31.888 42.22 32.6623 43.14 33.3532 43.94C33.8654 44.54 34.2466 44.96 34.7945 45.14C34.9851 45.21 35.1995 45.24 35.4497 45.24C35.6522 45.24 35.8308 45.22 35.9857 45.17C36.5932 45.02 36.9982 44.58 37.5342 43.94C38.1298 43.24 38.7969 42.47 40 42.27V38.11H0Z" fill="#F18539"/>
<path d="M37.5462 78.67C36.9982 78.03 36.5932 77.59 35.9857 77.44C35.8189 77.39 35.6522 77.37 35.4497 77.37C35.1995 77.37 34.9851 77.4 34.7945 77.47C34.2466 77.65 33.8654 78.08 33.3651 78.67C32.6742 79.47 31.8999 80.38 30.3038 80.38C28.7076 80.38 27.9333 79.47 27.2424 78.67C26.5634 77.86 26.087 77.37 25.1578 77.37C24.2168 77.37 23.7522 77.86 23.0613 78.67C22.3824 79.47 21.5962 80.38 20.0119 80.38C18.4157 80.38 17.6415 79.47 16.9506 78.67C16.2597 77.86 15.7951 77.37 14.866 77.37C13.925 77.37 13.4604 77.86 12.7695 78.67C12.0786 79.47 11.3043 80.38 9.70816 80.38C8.11197 80.38 7.3377 79.47 6.64682 78.67C6.13461 78.07 5.75343 77.65 5.20548 77.47C5.01489 77.4 4.80048 77.37 4.55033 77.37C4.34783 77.37 4.16915 77.39 4.0143 77.44C3.40679 77.59 3.00179 78.03 2.46575 78.67C1.87016 79.36 1.2031 80.14 0 80.34V84.5H40V80.34C38.7969 80.14 38.1418 79.36 37.5462 78.67Z" fill="#F18539"/>
</svg>
